<svg width="89" height="90" viewBox="0 0 89 90" fill="none" xmlns="http://www.w3.org/2000/svg">
<g filter="url(#filter0_d_965_4632)">
<path d="M28.7982 64.7473C29.8501 64.654 30.6869 64.8529 31.3087 65.3439C31.9595 65.8002 32.3259 66.4905 32.4079 67.4149C32.4305 67.6699 32.4213 67.9277 32.3801 68.1884C32.3737 68.4781 32.3471 68.7214 32.3003 68.9183C31.8802 68.8913 31.4124 68.8685 30.8967 68.85C30.3839 68.8633 29.7769 68.9011 29.0756 68.9632C28.1194 69.048 27.1369 69.1994 26.1282 69.4173C25.1514 69.6325 24.1905 69.8462 23.2456 70.0584C22.3035 70.3026 21.3918 70.528 20.5106 70.7346C19.6294 70.9413 18.8063 71.0785 18.0413 71.1463C16.7982 71.2566 15.7092 71.1122 14.7743 70.7132C13.8394 70.3142 13.1758 69.7145 12.7836 68.914C12.8998 68.7752 13.1913 68.6208 13.6581 68.4509C14.154 68.2463 14.7455 68.0333 15.4326 67.8117C16.1488 67.5555 16.946 67.3081 17.8244 67.0696C18.7347 66.8282 19.6608 66.5855 20.603 66.3413C20.8796 64.3892 21.1999 62.3851 21.5637 60.329C21.9566 58.2381 22.3508 56.1632 22.7465 54.1042C23.1713 52.0105 23.6148 49.9472 24.0771 47.9145C24.5393 45.8817 25.0073 43.9127 25.4808 42.0074C24.4423 42.6135 23.3715 43.3991 22.2684 44.3643C21.1944 45.2948 20.2755 46.1634 19.5118 46.97C19.1442 46.8098 18.9308 46.3951 18.8714 45.7257C19.9095 44.0274 20.979 42.5029 22.08 41.1524C23.181 39.8019 24.4025 38.3604 25.7444 36.8279C26.0639 36.4462 26.4345 35.9154 26.8561 35.2355C27.3096 34.5528 27.6834 33.8771 27.9775 33.2085C28.435 33.2964 29.0055 33.3904 29.6891 33.4904C30.3697 33.5586 31.0387 33.676 31.696 33.8426C32.3823 33.9745 32.9932 34.1612 33.5286 34.4029C34.096 34.6417 34.4922 34.9439 34.7174 35.3094C34.3341 35.6968 33.9841 36.0973 33.6674 36.5109C33.3825 36.9216 33.1324 37.3615 32.917 37.8303C32.3812 39.0343 31.7749 40.7104 31.098 42.8586C30.4501 44.9721 29.7887 47.2956 29.1138 49.8291C28.468 52.3279 27.8161 54.9397 27.1582 57.6644C26.5294 60.3545 25.966 62.8781 25.4683 65.2353C26.132 65.1122 26.7334 65.0107 27.2724 64.9307C27.8434 64.848 28.3519 64.7868 28.7982 64.7473ZM59.2311 55.5434C59.3894 57.3284 59.151 58.988 58.516 60.5221C57.9129 62.0533 57.0538 63.4145 55.9386 64.6057C54.8525 65.7621 53.5858 66.6936 52.1386 67.4002C50.6942 68.1387 49.2388 68.5729 47.7726 68.7029C46.3701 68.8273 45.0346 68.8011 43.766 68.6245C42.4974 68.4478 41.3568 68.0831 40.344 67.5304C39.3631 66.9749 38.5551 66.1952 37.9199 65.1914C37.282 64.1557 36.8937 62.8569 36.7553 61.295C36.6281 59.8606 36.7672 58.5312 37.1726 57.3066C37.6099 56.0791 38.247 54.9304 39.0837 53.8603C39.9524 52.7874 40.9888 51.796 42.1932 50.8861C43.4266 49.9414 44.7786 49.0666 46.2492 48.2616C45.0432 47.3405 43.9735 46.327 43.0402 45.2211C42.1359 44.0805 41.6131 42.7133 41.4718 41.1196C41.3531 39.7808 41.579 38.524 42.1494 37.349C42.7489 36.1393 43.5379 35.0735 44.5163 34.1515C45.5265 33.2266 46.6784 32.4499 47.9719 31.8212C49.2626 31.1606 50.5544 30.6927 51.8471 30.4174C54.3056 30.9704 56.3375 31.7862 57.9431 32.8646C59.5805 33.9402 60.467 35.243 60.6026 36.773C60.6761 37.6017 60.5106 38.4517 60.1059 39.3228C59.6984 40.1621 59.1143 41.0009 58.3533 41.8394C57.6215 42.6432 56.7593 43.4264 55.7667 44.1891C54.8033 44.917 53.8023 45.584 52.7637 46.1901C53.4925 46.8001 54.2226 47.4261 54.9542 48.068C55.6829 48.678 56.3376 49.3588 56.9182 50.1105C57.5308 50.8593 58.0374 51.6818 58.4381 52.5779C58.8679 53.4393 59.1322 54.4278 59.2311 55.5434ZM41.8646 61.8539C41.9437 62.7464 42.1405 63.5161 42.4548 64.1628C42.7663 64.7777 43.1491 65.2899 43.603 65.6994C44.086 66.0742 44.6083 66.3492 45.17 66.5243C45.7607 66.6646 46.3429 66.7094 46.9167 66.6585C47.7136 66.5879 48.5094 66.3245 49.3042 65.8685C50.0962 65.3807 50.793 64.7246 51.3946 63.9002C51.9961 63.0759 52.4546 62.0875 52.7701 60.9352C53.0855 59.7828 53.1797 58.4894 53.0525 57.0551C52.9168 55.5251 52.433 54.2348 51.6009 53.1841C50.766 52.1016 49.7948 51.1116 48.6872 50.2139C47.3263 51.1698 46.1768 52.1552 45.2388 53.17C44.3326 54.182 43.6191 55.1929 43.0983 56.2029C42.5746 57.181 42.2118 58.1608 42.0097 59.1425C41.8366 60.0895 41.7883 60.9933 41.8646 61.8539ZM56.202 36.0548C56.1116 35.0348 55.7845 34.2446 55.2208 33.6842C54.689 33.121 54.0509 32.8081 53.3064 32.7456C52.6484 32.9325 51.9697 33.2497 51.2705 33.6972C50.5685 34.1128 49.9227 34.6198 49.3333 35.2182C48.7757 35.8138 48.3194 36.4646 47.9644 37.1707C47.6384 37.8421 47.5051 38.5125 47.5645 39.1819C47.6634 40.2975 48.0074 41.279 48.5965 42.1263C49.1857 42.9735 49.8995 43.7776 50.738 44.5386C51.3097 44.1024 51.9179 43.5344 52.5626 42.8348C53.2392 42.1322 53.8478 41.3876 54.3884 40.6008C54.9609 39.8111 55.4219 39.0314 55.7712 38.2615C56.1178 37.4598 56.2614 36.7242 56.202 36.0548Z" fill="white"/>
</g>
<g filter="url(#filter1_d_965_4632)">
<path d="M73.2543 45.1207C72.7008 45.2362 72.0724 45.2304 71.3693 45.1031C70.6924 44.9662 70.0043 44.7588 69.3051 44.481C69.2333 43.6429 69.1663 42.8179 69.1042 42.006C69.0323 41.1679 68.9653 40.3428 68.9032 39.5309C68.4769 39.7485 68.0457 39.9529 67.6096 40.1442C67.1735 40.3355 66.7326 40.5137 66.2868 40.6788C65.3428 41.0284 64.4999 41.0871 63.7579 40.8549C63.0324 40.5869 62.5192 40.0464 62.2182 39.2335C62.1696 39.1024 62.123 38.896 62.0783 38.6144C62.0502 38.2968 62.0381 38.0628 62.0419 37.9122C62.5693 37.8064 63.0607 37.684 63.5162 37.5452C63.9979 37.3966 64.6059 37.1864 65.3401 36.9145C65.9432 36.6911 66.5332 36.4726 67.1101 36.259C67.7132 36.0357 68.2804 35.7958 68.8116 35.5394C68.8029 33.6641 68.8622 31.9723 68.9895 30.4641C69.1333 28.9199 69.3659 27.656 69.6874 26.6722C70.0215 26.6081 70.4765 26.5887 71.0524 26.614C71.6283 26.6392 72.2008 26.6956 72.7699 26.783C73.3555 26.8345 73.8936 26.9185 74.384 27.0351C74.8744 27.1516 75.2012 27.2692 75.3644 27.3877C75.0041 28.2665 74.7073 29.1964 74.4742 30.1773C74.2314 31.132 74.0177 32.1653 73.8331 33.2773C74.748 32.849 75.5317 32.4693 76.1844 32.1382C76.8632 31.7973 77.3862 31.5589 77.7533 31.423C78.3302 31.2093 78.9532 31.3215 79.6223 31.7595C80.2915 32.1976 80.9397 32.9415 81.567 33.9914C80.7775 34.1943 80.1287 34.3749 79.6208 34.5332C79.1391 34.6818 78.7147 34.824 78.3476 34.96C77.4036 35.3096 76.5135 35.6839 75.6773 36.0831C74.8576 36.4462 74.087 36.8211 73.3654 37.2076C73.275 38.4934 73.2206 39.7958 73.2021 41.1146C73.1836 42.4335 73.201 43.7688 73.2543 45.1207Z" fill="white"/>
</g>
<g filter="url(#filter2_d_965_4632)">
<path d="M74.9745 49.2148C74.9745 57.6449 72.0514 65.8146 66.7034 72.3311C61.3553 78.8477 53.9131 83.3085 45.6449 84.9531C37.3766 86.5977 28.7939 85.3246 21.3591 81.3507C13.9244 77.3767 8.09747 70.9476 4.87137 63.1592C1.64527 55.3708 1.21953 46.7044 3.66669 38.6373C6.11385 30.5702 11.2825 23.6009 18.292 18.9174C25.3014 14.2339 33.718 12.1256 42.1077 12.9519C50.4973 13.7782 58.3409 17.488 64.3019 23.449C64.3019 23.449 65.2751 25.0973 64.3019 25.8936C63.3288 26.69 61.8573 25.8936 61.8573 25.8936C56.4618 20.4982 49.3624 17.1404 41.7688 16.3925C34.1752 15.6446 26.5571 17.5529 20.2127 21.792C13.8683 26.0312 9.19007 32.3392 6.9751 39.6409C4.76012 46.9426 5.14547 54.7868 8.06548 61.8362C10.9855 68.8856 16.2595 74.7047 22.9889 78.3016C29.7182 81.8985 37.4866 83.0508 44.9704 81.5623C52.4541 80.0737 59.1902 76.0361 64.0308 70.1379C68.8715 64.2396 71.5172 56.8451 71.5172 49.2148C71.5172 49.2148 71.821 47.2931 73.3978 47.2931C74.9745 47.2931 74.9745 49.2148 74.9745 49.2148Z" fill="#DC1B1B"/>
</g>
<defs>
<filter id="filter0_d_965_4632" x="7.604" y="29.6963" width="57.8047" height="46.2813" filterUnits="userSpaceOnUse" color-interpolation-filters="sRGB">
<feFlood flood-opacity="0" result="BackgroundImageFix"/>
<feColorMatrix in="SourceAlpha" type="matrix" values="0 0 0 0 0 0 0 0 0 0 0 0 0 0 0 0 0 0 127 0" result="hardAlpha"/>
<feOffset dy="2.09718"/>
<feGaussianBlur stdDeviation="1.04859"/>
<feComposite in2="hardAlpha" operator="out"/>
<feColorMatrix type="matrix" values="0 0 0 0 0 0 0 0 0 0 0 0 0 0 0 0 0 0 0.25 0"/>
<feBlend mode="normal" in2="BackgroundImageFix" result="effect1_dropShadow_965_4632"/>
<feBlend mode="normal" in="SourceGraphic" in2="effect1_dropShadow_965_4632" result="shape"/>
</filter>
<filter id="filter1_d_965_4632" x="56.9311" y="23.6865" width="29.3545" height="28.5127" filterUnits="userSpaceOnUse" color-interpolation-filters="sRGB">
<feFlood flood-opacity="0" result="BackgroundImageFix"/>
<feColorMatrix in="SourceAlpha" type="matrix" values="0 0 0 0 0 0 0 0 0 0 0 0 0 0 0 0 0 0 127 0" result="hardAlpha"/>
<feOffset dy="2.09718"/>
<feGaussianBlur stdDeviation="1.04859"/>
<feComposite in2="hardAlpha" operator="out"/>
<feColorMatrix type="matrix" values="0 0 0 0 0 0 0 0 0 0 0 0 0 0 0 0 0 0 0.25 0"/>
<feBlend mode="normal" in2="BackgroundImageFix" result="effect1_dropShadow_965_4632"/>
<feBlend mode="normal" in="SourceGraphic" in2="effect1_dropShadow_965_4632" result="shape"/>
</filter>
<filter id="filter2_d_965_4632" x="0.000481129" y="12.7764" width="77.0713" height="77.0713" filterUnits="userSpaceOnUse" color-interpolation-filters="sRGB">
<feFlood flood-opacity="0" result="BackgroundImageFix"/>
<feColorMatrix in="SourceAlpha" type="matrix" values="0 0 0 0 0 0 0 0 0 0 0 0 0 0 0 0 0 0 127 0" result="hardAlpha"/>
<feOffset dy="2.09718"/>
<feGaussianBlur stdDeviation="1.04859"/>
<feComposite in2="hardAlpha" operator="out"/>
<feColorMatrix type="matrix" values="0 0 0 0 0 0 0 0 0 0 0 0 0 0 0 0 0 0 0.25 0"/>
<feBlend mode="normal" in2="BackgroundImageFix" result="effect1_dropShadow_965_4632"/>
<feBlend mode="normal" in="SourceGraphic" in2="effect1_dropShadow_965_4632" result="shape"/>
</filter>
</defs>
</svg>
